<svg width="13" height="13" viewBox="0 0 13 13" fill="none" xmlns="http://www.w3.org/2000/svg">
<path d="M9.27422 8.36314L9.24719 8.39797L9.27837 8.42915L12.7815 11.9324C12.7816 11.9325 12.7817 11.9326 12.7817 11.9327C12.8909 12.0459 12.9513 12.1975 12.95 12.3548C12.9486 12.5122 12.8855 12.6628 12.7741 12.7741C12.6628 12.8855 12.5122 12.9486 12.3548 12.95C12.1975 12.9513 12.046 12.8909 11.9328 12.7818C11.9327 12.7817 11.9326 12.7816 11.9325 12.7815L8.42941 9.27816L8.39823 9.24697L8.36339 9.27402C7.60166 9.86544 6.68926 10.2312 5.72996 10.3298C4.77066 10.4284 3.80294 10.2558 2.93685 9.83168C2.07077 9.40753 1.34106 8.74886 0.830726 7.93056C0.320388 7.11226 0.0498929 6.16717 0.05 5.20276C0.0501174 4.38262 0.245962 3.57435 0.621258 2.84512C0.996553 2.1159 1.54046 1.48678 2.20778 1.01006C2.87509 0.533331 3.64654 0.222764 4.45802 0.104167C5.26949 -0.0144295 6.09755 0.0623689 6.87337 0.32818C7.6492 0.593991 8.35038 1.04114 8.91865 1.63246C9.48692 2.22378 9.90587 2.9422 10.1407 3.72801C10.3755 4.51381 10.4193 5.34431 10.2686 6.15049C10.1179 6.95666 9.77703 7.71523 9.27422 8.36314ZM5.2032 1.25013C4.15495 1.25013 3.14965 1.66657 2.40843 2.40783C1.66721 3.14909 1.2508 4.15445 1.2508 5.20275C1.2508 6.25105 1.66721 7.25641 2.40843 7.99767C3.14965 8.73894 4.15495 9.15537 5.2032 9.15537C6.25144 9.15537 7.25675 8.73894 7.99796 7.99767C8.73918 7.25641 9.15559 6.25105 9.15559 5.20275C9.15559 4.15445 8.73918 3.14909 7.99796 2.40783C7.25675 1.66657 6.25144 1.25013 5.2032 1.25013Z" fill="black" stroke="black" stroke-width="0.1"/>
</svg>
