<svg width="26" height="26" viewBox="0 0 26 26" fill="none" xmlns="http://www.w3.org/2000/svg">
<path d="M1.75 7.75098H8.43036C8.76593 9.0462 9.93427 10.0098 11.333 10.0098C12.7318 10.0098 13.9001 9.0462 14.2357 7.75098H24.25C24.6641 7.75098 25 7.41504 25 7.00098C25 6.58691 24.6641 6.25098 24.25 6.25098H14.2357C13.9001 4.95575 12.7318 3.99219 11.333 3.99219C9.93427 3.99219 8.76593 4.95575 8.43036 6.25098H1.75C1.33594 6.25098 1 6.58691 1 7.00098C1 7.41504 1.33594 7.75098 1.75 7.75098ZM11.333 5.49219C12.165 5.49219 12.8418 6.16895 12.8418 7.00098C12.8418 7.83301 12.165 8.50977 11.333 8.50977C10.501 8.50977 9.82422 7.83301 9.82422 7.00098C9.82422 6.16895 10.501 5.49219 11.333 5.49219Z" fill="black" fill-opacity="0.79"/>
<path d="M24.25 12.251H22.6439C22.3083 10.9557 21.14 9.99219 19.7412 9.99219C18.3425 9.99219 17.1741 10.9557 16.8386 12.251H1.75C1.33594 12.251 1 12.5869 1 13.001C1 13.415 1.33594 13.751 1.75 13.751H16.8386C17.1741 15.0462 18.3425 16.0098 19.7412 16.0098C21.14 16.0098 22.3083 15.0462 22.6439 13.751H24.25C24.6641 13.751 25 13.415 25 13.001C25 12.5869 24.6641 12.251 24.25 12.251ZM19.7412 14.5098C18.9092 14.5098 18.2324 13.833 18.2324 13.001C18.2324 12.1689 18.9092 11.4922 19.7412 11.4922C20.5732 11.4922 21.25 12.1689 21.25 13.001C21.25 13.833 20.5732 14.5098 19.7412 14.5098Z" fill="black" fill-opacity="0.79"/>
<path d="M24.25 18.251H9.71814C9.38263 16.9557 8.21436 15.9922 6.81641 15.9922C5.41766 15.9922 4.24933 16.9557 3.91376 18.251H1.75C1.33594 18.251 1 18.5869 1 19.001C1 19.415 1.33594 19.751 1.75 19.751H3.91376C4.24933 21.0462 5.41766 22.0098 6.81641 22.0098C8.21436 22.0098 9.38263 21.0462 9.71814 19.751H24.25C24.6641 19.751 25 19.415 25 19.001C25 18.5869 24.6641 18.251 24.25 18.251ZM6.81641 20.5098C5.98438 20.5098 5.30762 19.833 5.30762 19.001C5.30762 18.1689 5.98438 17.4922 6.81641 17.4922C7.64746 17.4922 8.32422 18.1689 8.32422 19.001C8.32422 19.833 7.64746 20.5098 6.81641 20.5098Z" fill="black" fill-opacity="0.79"/>
</svg>
