<svg width="26" height="26" fill="none" xmlns="http://www.w3.org/2000/svg"><path d="M1.75 7.751h6.68a3.006 3.006 0 0 0 2.903 2.259 3.006 3.006 0 0 0 2.903-2.259H24.25a.75.75 0 0 0 0-1.5H14.236a3.006 3.006 0 0 0-2.903-2.259A3.006 3.006 0 0 0 8.43 6.251H1.75a.75.75 0 0 0 0 1.5Zm9.583-2.259a1.51 1.51 0 0 1 1.509 1.509 1.51 1.51 0 0 1-1.509 1.509A1.51 1.51 0 0 1 9.824 7a1.51 1.51 0 0 1 1.509-1.509ZM24.25 12.251h-1.606a3.006 3.006 0 0 0-2.903-2.259 3.006 3.006 0 0 0-2.902 2.259H1.75a.75.75 0 0 0 0 1.5h15.089a3.006 3.006 0 0 0 2.902 2.259 3.006 3.006 0 0 0 2.903-2.259h1.606a.75.75 0 0 0 0-1.5Zm-4.509 2.259A1.51 1.51 0 0 1 18.232 13a1.51 1.51 0 0 1 1.51-1.509 1.51 1.51 0 0 1 1.508 1.509 1.51 1.51 0 0 1-1.509 1.509ZM24.25 18.251H9.718a3.005 3.005 0 0 0-2.902-2.259 3.006 3.006 0 0 0-2.902 2.259H1.75a.75.75 0 0 0 0 1.5h2.164a3.006 3.006 0 0 0 2.902 2.259 3.005 3.005 0 0 0 2.902-2.259H24.25a.75.75 0 0 0 0-1.5ZM6.816 20.51A1.51 1.51 0 0 1 5.308 19a1.51 1.51 0 0 1 1.508-1.509 1.51 1.51 0 0 1 1.508 1.509 1.51 1.51 0 0 1-1.508 1.509Z" fill="#000" fill-opacity=".79"/></svg>