<svg width="18" height="18" fill="none" xmlns="http://www.w3.org/2000/svg"><path d="M12.717 9.207A4.974 4.974 0 0 0 14 5.875c0-2.757-2.243-5-5-5s-5 2.243-5 5 2.243 5 5 5c.972 0 1.877-.283 2.646-.765a7.487 7.487 0 0 1 4.828 6.39H1.526a7.504 7.504 0 0 1 2.549-5.032.625.625 0 1 0-.821-.942A8.75 8.75 0 0 0 .25 17.125c0 .346.28.625.625.625h16.25c.346 0 .625-.28.625-.625a8.734 8.734 0 0 0-5.033-7.918ZM5.25 5.875A3.754 3.754 0 0 1 9 2.125a3.754 3.754 0 0 1 3.75 3.75A3.754 3.754 0 0 1 9 9.625a3.754 3.754 0 0 1-3.75-3.75Z" fill="#000" fill-opacity=".79"/></svg>